<svg width="18" height="18" viewBox="0 0 18 18" fill="none" xmlns="http://www.w3.org/2000/svg">
<path d="M14.25 15H3.74998C3.55107 15 3.3603 15.079 3.21965 15.2197C3.079 15.3603 2.99998 15.5511 2.99998 15.75C2.99998 15.9489 3.079 16.1397 3.21965 16.2803C3.3603 16.421 3.55107 16.5 3.74998 16.5H14.25C14.4489 16.5 14.6397 16.421 14.7803 16.2803C14.921 16.1397 15 15.9489 15 15.75C15 15.5511 14.921 15.3603 14.7803 15.2197C14.6397 15.079 14.4489 15 14.25 15ZM3.74998 13.5H3.81748L6.94498 13.215C7.28758 13.1809 7.608 13.0299 7.85248 12.7875L14.6025 6.03749C14.8645 5.76071 15.0061 5.39137 14.9962 5.01039C14.9864 4.62941 14.8259 4.26787 14.55 4.00499L12.495 1.94999C12.2268 1.69806 11.8753 1.5535 11.5075 1.54382C11.1396 1.53414 10.7811 1.66001 10.5 1.89749L3.74998 8.64748C3.50755 8.89196 3.35661 9.21239 3.32248 9.55499L2.99998 12.6825C2.98988 12.7923 3.00413 12.9031 3.04172 13.0068C3.07932 13.1105 3.13933 13.2046 3.21748 13.2825C3.28756 13.352 3.37067 13.407 3.46205 13.4443C3.55343 13.4816 3.65127 13.5006 3.74998 13.5ZM11.4525 2.99999L13.5 5.04748L12 6.50998L9.98998 4.49999L11.4525 2.99999Z" fill="#5E6272"/>
</svg>
